<svg viewBox="0 0 74 74" class="sc-bdfBwQ gTtSJI desktop-icon" color="text" width="20px" xmlns="http://www.w3.org/2000/svg"><path d="m61.72 42.23a24.522 24.522 0 0 0 3.83 7.22 14.747 14.747 0 0 1 -7.41-5.21l-.02 9.33c-1.98-2.47-4.31-5.77-6.5-7.42-.08 2.27.11 6.33-.85 8.57l-4.23-6.36-4.14 8.17a20.512 20.512 0 0 0 -.83-7.68 35.815 35.815 0 0 1 -7.24 8.9c.4-2.2.49-4.24-.38-5.79a14.926 14.926 0 0 1 -5.08 5.83 16.5 16.5 0 0 0 1.58-7.43 16.959 16.959 0 0 1 -4.87 4.14 12.332 12.332 0 0 0 -.14-3.99c1.8-6.44.01-13-4.19-15.44l-6.44-16.08c5.1-7.82 12.79-14.5 23.35-14.42a21.134 21.134 0 0 1 13.41 4.83 24.36 24.36 0 0 1 8.14 13.17c1.67 6.8 3.58 15 5.86 21.38a9.024 9.024 0 0 1 -3.85-1.72z" fill="#e1e6e9"></path><path d="m63.93 51.42a29.255 29.255 0 0 0 4.28 8.49 16.647 16.647 0 0 1 -8.33-6.17l-.08 10.95c-2.22-2.91-4.82-6.8-7.29-8.75-.1 2.66.08 7.42-1.02 10.05l-4.72-7.49-4.73 9.55a24.965 24.965 0 0 0 -.88-9.01 42.058 42.058 0 0 1 -8.23 10.39c.47-2.58.59-4.98-.39-6.8-1.58 2.91-3.4 5.38-5.77 6.8a20.112 20.112 0 0 0 1.83-8.71 19.263 19.263 0 0 1 -5.52 4.83 17.728 17.728 0 0 0 1.3-5.69 10.456 10.456 0 0 1 -6.21 1.12 19.494 19.494 0 0 0 7.27-10.47 12.332 12.332 0 0 1 .14 3.99 16.959 16.959 0 0 0 4.87-4.14 16.5 16.5 0 0 1 -1.58 7.43 14.926 14.926 0 0 0 5.08-5.83c.87 1.55.78 3.59.38 5.79a35.815 35.815 0 0 0 7.24-8.9 20.512 20.512 0 0 1 .83 7.68l4.14-8.17 4.23 6.36c.96-2.24.77-6.3.85-8.57 2.19 1.65 4.52 4.95 6.5 7.42l.02-9.33a14.747 14.747 0 0 0 7.41 5.21 24.522 24.522 0 0 1 -3.83-7.22 9.024 9.024 0 0 0 3.85 1.72c1.6 4.52 3.39 8.14 5.43 9.71a10.047 10.047 0 0 1 -7.07-2.24z" fill="#84879c"></path><path d="m32.926 69.928a.5.5 0 0 1 -.492-.59 11.945 11.945 0 0 0 .04-5.573 16.276 16.276 0 0 1 -5.448 6.091.5.5 0 0 1 -.718-.623 20.92 20.92 0 0 0 1.792-7.151 18.505 18.505 0 0 1 -4.775 3.906.5.5 0 0 1 -.708-.623 17.638 17.638 0 0 0 1.2-4.709 10.3 10.3 0 0 1 -5.724.821.5.5 0 0 1 -.216-.9 18.675 18.675 0 0 0 7.733-16.003c-.227-4.137-1.95-7.53-4.61-9.076a.5.5 0 0 1 .5-.864c2.951 1.715 4.86 5.411 5.105 9.885a19.59 19.59 0 0 1 -7.133 16.073 10.6 10.6 0 0 0 4.688-1.183.5.5 0 0 1 .711.478 17.505 17.505 0 0 1 -.837 4.485 19.7 19.7 0 0 0 4.171-3.961.5.5 0 0 1 .889.29 18.948 18.948 0 0 1 -1.249 7.337 19.358 19.358 0 0 0 4.255-5.649.5.5 0 0 1 .439-.262.5.5 0 0 1 .439.264 9.557 9.557 0 0 1 .671 5.632 39.308 39.308 0 0 0 7.063-9.217.489.489 0 0 1 .481-.265.5.5 0 0 1 .434.337 21.626 21.626 0 0 1 .964 6.93l3.729-7.535a.5.5 0 0 1 .871-.045l4.158 6.6a32.915 32.915 0 0 0 .622-7.115c.01-.659.02-1.268.041-1.795a.5.5 0 0 1 .81-.372c2.019 1.6 4.131 4.463 5.994 6.989.165.223.327.444.489.662l.074-9.461a.5.5 0 0 1 .905-.289 16.191 16.191 0 0 0 6.618 5.414 27.473 27.473 0 0 1 -3.458-7.327.5.5 0 0 1 .8-.513 9.57 9.57 0 0 0 5.5 2.136c-4.216-4.648-7.349-17.482-9.9-27.937l-.621-2.536a23.9 23.9 0 0 0 -7.969-12.891 20.48 20.48 0 0 0 -13.1-4.721h-.179c-11.146 0-18.519 7.7-22.749 14.187a.5.5 0 1 1 -.838-.547c4.365-6.69 11.993-14.64 23.583-14.64h.188a21.452 21.452 0 0 1 13.724 4.944 24.906 24.906 0 0 1 8.309 13.433l.621 2.539c2.7 11.075 6.067 24.858 10.493 28.273a.5.5 0 0 1 -.275.9 10.466 10.466 0 0 1 -6.185-1.5 32.008 32.008 0 0 0 3.773 6.959.5.5 0 0 1 -.568.762 17.064 17.064 0 0 1 -7.679-5.2l-.072 9.51a.5.5 0 0 1 -.9.3c-.447-.588-.91-1.215-1.384-1.858a48.265 48.265 0 0 0 -5.029-6.119c0 .231-.008.471-.012.719-.044 2.786-.1 6.252-1.021 8.452a.5.5 0 0 1 -.42.305.513.513 0 0 1 -.464-.232l-4.246-6.74-4.333 8.753a.5.5 0 0 1 -.948-.245 27.008 27.008 0 0 0 -.53-7.7 43.6 43.6 0 0 1 -7.744 9.463.5.5 0 0 1 -.343.138z" fill="#323c6b"></path><path d="m65.57 43.95a9.024 9.024 0 0 1 -3.85-1.72 159.94 159.94 0 0 1 -5.2-17.62 24.359 24.359 0 0 0 -8.14-13.17 21.134 21.134 0 0 0 -13.41-4.83 23.385 23.385 0 0 0 -11.46 2.87 23.9 23.9 0 0 1 14.65-4.91 21.134 21.134 0 0 1 13.41 4.83 24.36 24.36 0 0 1 8.14 13.17c1.67 6.8 3.58 15 5.86 21.38z" fill="#d5d6db"></path><path d="m35.687 29.2s-9.7.537-12.863-3.858-3.038-8.08-10.148-5.817-10.665 9.76-9.437 14.22 2.327 5.817 2.327 5.817-1.874-7.433 4.848-8.274 25.273-2.088 25.273-2.088z" fill="#fcd462"></path><path d="m5.566 40.066a.5.5 0 0 1 -.389-.186c-.047-.059-1.179-1.49-2.42-6-1.373-4.984 2.6-12.547 9.768-14.829 5.981-1.9 7.273.316 9.059 3.389a30.787 30.787 0 0 0 1.646 2.612c2.969 4.121 12.333 3.656 12.43 3.651a.5.5 0 0 1 .061 1c-.186.012-18.613 1.256-25.245 2.085a4.992 4.992 0 0 0 -3.706 2.012c-1.543 2.251-.727 5.613-.719 5.647a.5.5 0 0 1 -.485.622zm10.7-20.724a11.693 11.693 0 0 0 -3.437.664c-7.1 2.26-10.186 9.689-9.106 13.61a32.763 32.763 0 0 0 1.108 3.375 7.086 7.086 0 0 1 1.112-3.754 5.942 5.942 0 0 1 4.411-2.44c4.084-.511 12.605-1.177 18.628-1.619-2.532-.532-5.138-1.563-6.562-3.539a31.744 31.744 0 0 1 -1.7-2.695c-1.251-2.152-2.095-3.602-4.456-3.602z" fill="#323c6b"></path><path d="m43.25 32.42a6.811 6.811 0 0 1 -8.1 4.69c-4.35-1.11-10-2.13-10-2.13-11.1.42-16.38-.75-18.69-1.6a5.45 5.45 0 0 1 3.95-2.09c6.73-.84 25.28-2.09 25.28-2.09a19.726 19.726 0 0 0 7.56 3.22z" fill="#fcd462"></path><path d="m35.743 15.147a.486.486 0 0 1 -.343-.147l-.01-.01a.5.5 0 0 1 .707-.707.5.5 0 0 1 -.351.861z" fill="#323c6b"></path><path d="m37.97 19.1a5.5 5.5 0 1 1 -11 0 4.429 4.429 0 0 1 .17-1.32 18.648 18.648 0 0 0 7.22-2.48 5.827 5.827 0 0 1 1.39-.65 5.489 5.489 0 0 1 2.22 4.45z" fill="#fff"></path><g fill="#323c6b"><path d="m32.47 25.11a6.011 6.011 0 0 1 -6-6.01 4.85 4.85 0 0 1 .194-1.472.5.5 0 0 1 .408-.344 18.187 18.187 0 0 0 7.019-2.406 6.35 6.35 0 0 1 1.508-.706.5.5 0 0 1 .446.072 6.03 6.03 0 0 1 -3.575 10.866zm-4.928-6.883a4.629 4.629 0 0 0 -.072.874 5 5 0 1 0 8.188-3.89 5.276 5.276 0 0 0 -1.027.51 18.953 18.953 0 0 1 -7.089 2.506z"></path><path d="m41.44 15.43a.5.5 0 0 1 -.157-.025 8.92 8.92 0 0 0 -5.378-.279.5.5 0 0 1 -.309-.951 9.9 9.9 0 0 1 6 .281.5.5 0 0 1 -.157.975z"></path><path d="m26.479 18.36a.5.5 0 0 1 -.052-1l.652-.08a.5.5 0 1 1 .12.993l-.668.081z"></path><path d="m33.882 19.09a2.24 2.24 0 0 1 -4.464-.272 2.217 2.217 0 0 1 1.674-2.167.971.971 0 0 0 -.026.273 2.238 2.238 0 0 0 2.245 2.245 2.089 2.089 0 0 0 .571-.079z"></path><path d="m15.868 24.567a.5.5 0 0 1 -.486-.619c.178-.724.082-.914.081-.916 0 .043-.221.134-.371.235a.5.5 0 0 1 -.566-.824c.153-.1.947-.609 1.538-.2s.446 1.3.29 1.944a.5.5 0 0 1 -.486.38z"></path><path d="m36.662 37.743a9.447 9.447 0 0 1 -1.6-.14c-4.1-1.043-9.366-2.014-9.951-2.121-10.8.405-16.2-.664-18.827-1.632a.5.5 0 0 1 -.231-.764 5.968 5.968 0 0 1 4.292-2.292c6.668-.832 25.124-2.08 25.309-2.093a.5.5 0 1 1 .067 1c-.186.012-18.613 1.258-25.251 2.087a5.366 5.366 0 0 0 -3.147 1.357c2.451.757 7.66 1.722 17.806 1.337a.416.416 0 0 1 .108.007c.057.01 5.717 1.036 10.035 2.138a6.287 6.287 0 0 0 7.5-4.353.5.5 0 1 1 .956.294 7.229 7.229 0 0 1 -7.066 5.175z"></path><path d="m32.926 69.928a.5.5 0 0 1 -.492-.59 11.945 11.945 0 0 0 .04-5.573 16.276 16.276 0 0 1 -5.448 6.091.5.5 0 0 1 -.718-.623 20.92 20.92 0 0 0 1.792-7.151 18.505 18.505 0 0 1 -4.775 3.906.5.5 0 0 1 -.708-.623 17.638 17.638 0 0 0 1.2-4.709 10.3 10.3 0 0 1 -5.724.821.5.5 0 0 1 -.216-.9 18.675 18.675 0 0 0 7.733-16.003c-.227-4.137-1.95-7.53-4.61-9.076a.5.5 0 0 1 .5-.864c2.951 1.715 4.86 5.411 5.105 9.885a19.59 19.59 0 0 1 -7.133 16.073 10.6 10.6 0 0 0 4.688-1.183.5.5 0 0 1 .711.478 17.505 17.505 0 0 1 -.837 4.485 19.7 19.7 0 0 0 4.171-3.961.5.5 0 0 1 .889.29 18.948 18.948 0 0 1 -1.249 7.337 19.358 19.358 0 0 0 4.255-5.649.5.5 0 0 1 .439-.262.5.5 0 0 1 .439.264 9.557 9.557 0 0 1 .671 5.632 39.308 39.308 0 0 0 7.063-9.217.489.489 0 0 1 .481-.265.5.5 0 0 1 .434.337 21.626 21.626 0 0 1 .964 6.93l3.729-7.535a.5.5 0 0 1 .871-.045l4.158 6.6a32.915 32.915 0 0 0 .622-7.115c.01-.659.02-1.268.041-1.795a.5.5 0 0 1 .81-.372c2.019 1.6 4.131 4.463 5.994 6.989.165.223.327.444.489.662l.074-9.461a.5.5 0 0 1 .905-.289 16.191 16.191 0 0 0 6.618 5.414 27.473 27.473 0 0 1 -3.458-7.327.5.5 0 0 1 .8-.513 9.57 9.57 0 0 0 5.5 2.136c-4.216-4.648-7.349-17.482-9.9-27.937l-.621-2.536a23.9 23.9 0 0 0 -7.969-12.891 20.48 20.48 0 0 0 -13.1-4.721h-.179c-11.146 0-18.519 7.7-22.749 14.187a.5.5 0 1 1 -.838-.547c4.365-6.69 11.993-14.64 23.583-14.64h.188a21.452 21.452 0 0 1 13.724 4.944 24.906 24.906 0 0 1 8.309 13.433l.621 2.539c2.7 11.075 6.067 24.858 10.493 28.273a.5.5 0 0 1 -.275.9 10.466 10.466 0 0 1 -6.185-1.5 32.008 32.008 0 0 0 3.773 6.959.5.5 0 0 1 -.568.762 17.064 17.064 0 0 1 -7.679-5.2l-.072 9.51a.5.5 0 0 1 -.9.3c-.447-.588-.91-1.215-1.384-1.858a48.265 48.265 0 0 0 -5.029-6.119c0 .231-.008.471-.012.719-.044 2.786-.1 6.252-1.021 8.452a.5.5 0 0 1 -.42.305.513.513 0 0 1 -.464-.232l-4.246-6.74-4.333 8.753a.5.5 0 0 1 -.948-.245 27.008 27.008 0 0 0 -.53-7.7 43.6 43.6 0 0 1 -7.744 9.463.5.5 0 0 1 -.343.138z"></path></g></svg>